<mxfile host="app.diagrams.net" agent="Mozilla/5.0 (Macintosh; Intel Mac OS X 10_15_7) AppleWebKit/537.36 (KHTML, like Gecko) Chrome/127.0.0.0 Safari/537.36" version="24.7.7">
  <diagram name="第 1 页" id="kzzO2YOHoRldFsW4yiQl">
    <mxGraphModel dx="954" dy="606" grid="1" gridSize="10" guides="1" tooltips="1" connect="1" arrows="1" fold="1" page="1" pageScale="1" pageWidth="827" pageHeight="1169" math="0" shadow="0">
      <root>
        <mxCell id="0" />
        <mxCell id="1" parent="0" />
        <mxCell id="0qRXyUEl9UgICIR-H8Mq-2" value="" style="rounded=0;whiteSpace=wrap;html=1;dashed=1;dashPattern=12 12;" vertex="1" parent="1">
          <mxGeometry x="477" y="283" width="160" height="210" as="geometry" />
        </mxCell>
        <mxCell id="0qRXyUEl9UgICIR-H8Mq-3" style="edgeStyle=orthogonalEdgeStyle;rounded=0;orthogonalLoop=1;jettySize=auto;html=1;entryX=0.5;entryY=0;entryDx=0;entryDy=0;" edge="1" parent="1" source="0qRXyUEl9UgICIR-H8Mq-4" target="0qRXyUEl9UgICIR-H8Mq-63">
          <mxGeometry relative="1" as="geometry" />
        </mxCell>
        <mxCell id="0qRXyUEl9UgICIR-H8Mq-4" value="&lt;b&gt;&lt;font style=&quot;font-size: 14px;&quot;&gt;ModelPredict&lt;/font&gt;&lt;/b&gt;" style="rounded=0;whiteSpace=wrap;html=1;" vertex="1" parent="1">
          <mxGeometry x="487" y="363" width="140" height="50" as="geometry" />
        </mxCell>
        <mxCell id="0qRXyUEl9UgICIR-H8Mq-5" value="" style="shape=table;startSize=0;container=1;collapsible=0;childLayout=tableLayout;fontSize=16;fillColor=#eeeeee;strokeColor=#36393d;" vertex="1" parent="1">
          <mxGeometry x="186" y="290" width="104" height="100" as="geometry" />
        </mxCell>
        <mxCell id="0qRXyUEl9UgICIR-H8Mq-6" value="" style="shape=tableRow;horizontal=0;startSize=0;swimlaneHead=0;swimlaneBody=0;strokeColor=inherit;top=0;left=0;bottom=0;right=0;collapsible=0;dropTarget=0;fillColor=none;points=[[0,0.5],[1,0.5]];portConstraint=eastwest;fontSize=16;" vertex="1" parent="0qRXyUEl9UgICIR-H8Mq-5">
          <mxGeometry width="104" height="33" as="geometry" />
        </mxCell>
        <mxCell id="0qRXyUEl9UgICIR-H8Mq-7" value="" style="shape=partialRectangle;html=1;whiteSpace=wrap;connectable=0;strokeColor=inherit;overflow=hidden;fillColor=none;top=0;left=0;bottom=0;right=0;pointerEvents=1;fontSize=16;" vertex="1" parent="0qRXyUEl9UgICIR-H8Mq-6">
          <mxGeometry width="35" height="33" as="geometry">
            <mxRectangle width="35" height="33" as="alternateBounds" />
          </mxGeometry>
        </mxCell>
        <mxCell id="0qRXyUEl9UgICIR-H8Mq-8" value="" style="shape=partialRectangle;html=1;whiteSpace=wrap;connectable=0;strokeColor=inherit;overflow=hidden;fillColor=none;top=0;left=0;bottom=0;right=0;pointerEvents=1;fontSize=16;" vertex="1" parent="0qRXyUEl9UgICIR-H8Mq-6">
          <mxGeometry x="35" width="34" height="33" as="geometry">
            <mxRectangle width="34" height="33" as="alternateBounds" />
          </mxGeometry>
        </mxCell>
        <mxCell id="0qRXyUEl9UgICIR-H8Mq-9" value="" style="shape=partialRectangle;html=1;whiteSpace=wrap;connectable=0;strokeColor=inherit;overflow=hidden;fillColor=none;top=0;left=0;bottom=0;right=0;pointerEvents=1;fontSize=16;" vertex="1" parent="0qRXyUEl9UgICIR-H8Mq-6">
          <mxGeometry x="69" width="35" height="33" as="geometry">
            <mxRectangle width="35" height="33" as="alternateBounds" />
          </mxGeometry>
        </mxCell>
        <mxCell id="0qRXyUEl9UgICIR-H8Mq-10" value="" style="shape=tableRow;horizontal=0;startSize=0;swimlaneHead=0;swimlaneBody=0;strokeColor=inherit;top=0;left=0;bottom=0;right=0;collapsible=0;dropTarget=0;fillColor=none;points=[[0,0.5],[1,0.5]];portConstraint=eastwest;fontSize=16;" vertex="1" parent="0qRXyUEl9UgICIR-H8Mq-5">
          <mxGeometry y="33" width="104" height="34" as="geometry" />
        </mxCell>
        <mxCell id="0qRXyUEl9UgICIR-H8Mq-11" value="&lt;font style=&quot;font-size: 12px;&quot;&gt;10&lt;/font&gt;" style="shape=partialRectangle;html=1;whiteSpace=wrap;connectable=0;strokeColor=inherit;overflow=hidden;fillColor=none;top=0;left=0;bottom=0;right=0;pointerEvents=1;fontSize=16;" vertex="1" parent="0qRXyUEl9UgICIR-H8Mq-10">
          <mxGeometry width="35" height="34" as="geometry">
            <mxRectangle width="35" height="34" as="alternateBounds" />
          </mxGeometry>
        </mxCell>
        <mxCell id="0qRXyUEl9UgICIR-H8Mq-12" value="" style="shape=partialRectangle;html=1;whiteSpace=wrap;connectable=0;strokeColor=inherit;overflow=hidden;fillColor=none;top=0;left=0;bottom=0;right=0;pointerEvents=1;fontSize=16;" vertex="1" parent="0qRXyUEl9UgICIR-H8Mq-10">
          <mxGeometry x="35" width="34" height="34" as="geometry">
            <mxRectangle width="34" height="34" as="alternateBounds" />
          </mxGeometry>
        </mxCell>
        <mxCell id="0qRXyUEl9UgICIR-H8Mq-13" value="" style="shape=partialRectangle;html=1;whiteSpace=wrap;connectable=0;strokeColor=inherit;overflow=hidden;fillColor=none;top=0;left=0;bottom=0;right=0;pointerEvents=1;fontSize=16;" vertex="1" parent="0qRXyUEl9UgICIR-H8Mq-10">
          <mxGeometry x="69" width="35" height="34" as="geometry">
            <mxRectangle width="35" height="34" as="alternateBounds" />
          </mxGeometry>
        </mxCell>
        <mxCell id="0qRXyUEl9UgICIR-H8Mq-14" value="" style="shape=tableRow;horizontal=0;startSize=0;swimlaneHead=0;swimlaneBody=0;strokeColor=inherit;top=0;left=0;bottom=0;right=0;collapsible=0;dropTarget=0;fillColor=none;points=[[0,0.5],[1,0.5]];portConstraint=eastwest;fontSize=16;" vertex="1" parent="0qRXyUEl9UgICIR-H8Mq-5">
          <mxGeometry y="67" width="104" height="33" as="geometry" />
        </mxCell>
        <mxCell id="0qRXyUEl9UgICIR-H8Mq-15" value="" style="shape=partialRectangle;html=1;whiteSpace=wrap;connectable=0;strokeColor=inherit;overflow=hidden;fillColor=none;top=0;left=0;bottom=0;right=0;pointerEvents=1;fontSize=16;" vertex="1" parent="0qRXyUEl9UgICIR-H8Mq-14">
          <mxGeometry width="35" height="33" as="geometry">
            <mxRectangle width="35" height="33" as="alternateBounds" />
          </mxGeometry>
        </mxCell>
        <mxCell id="0qRXyUEl9UgICIR-H8Mq-16" value="" style="shape=partialRectangle;html=1;whiteSpace=wrap;connectable=0;strokeColor=inherit;overflow=hidden;fillColor=none;top=0;left=0;bottom=0;right=0;pointerEvents=1;fontSize=16;" vertex="1" parent="0qRXyUEl9UgICIR-H8Mq-14">
          <mxGeometry x="35" width="34" height="33" as="geometry">
            <mxRectangle width="34" height="33" as="alternateBounds" />
          </mxGeometry>
        </mxCell>
        <mxCell id="0qRXyUEl9UgICIR-H8Mq-17" value="" style="shape=partialRectangle;html=1;whiteSpace=wrap;connectable=0;strokeColor=inherit;overflow=hidden;fillColor=none;top=0;left=0;bottom=0;right=0;pointerEvents=1;fontSize=16;" vertex="1" parent="0qRXyUEl9UgICIR-H8Mq-14">
          <mxGeometry x="69" width="35" height="33" as="geometry">
            <mxRectangle width="35" height="33" as="alternateBounds" />
          </mxGeometry>
        </mxCell>
        <mxCell id="0qRXyUEl9UgICIR-H8Mq-18" value="" style="shape=table;startSize=0;container=1;collapsible=0;childLayout=tableLayout;fontSize=16;fillColor=#eeeeee;strokeColor=#36393d;" vertex="1" parent="1">
          <mxGeometry x="290" y="290" width="104" height="100" as="geometry" />
        </mxCell>
        <mxCell id="0qRXyUEl9UgICIR-H8Mq-19" value="" style="shape=tableRow;horizontal=0;startSize=0;swimlaneHead=0;swimlaneBody=0;strokeColor=inherit;top=0;left=0;bottom=0;right=0;collapsible=0;dropTarget=0;fillColor=none;points=[[0,0.5],[1,0.5]];portConstraint=eastwest;fontSize=16;" vertex="1" parent="0qRXyUEl9UgICIR-H8Mq-18">
          <mxGeometry width="104" height="33" as="geometry" />
        </mxCell>
        <mxCell id="0qRXyUEl9UgICIR-H8Mq-20" value="" style="shape=partialRectangle;html=1;whiteSpace=wrap;connectable=0;strokeColor=inherit;overflow=hidden;fillColor=none;top=0;left=0;bottom=0;right=0;pointerEvents=1;fontSize=16;" vertex="1" parent="0qRXyUEl9UgICIR-H8Mq-19">
          <mxGeometry width="35" height="33" as="geometry">
            <mxRectangle width="35" height="33" as="alternateBounds" />
          </mxGeometry>
        </mxCell>
        <mxCell id="0qRXyUEl9UgICIR-H8Mq-21" value="&lt;font style=&quot;font-size: 12px;&quot;&gt;10&lt;/font&gt;" style="shape=partialRectangle;html=1;whiteSpace=wrap;connectable=0;strokeColor=inherit;overflow=hidden;fillColor=none;top=0;left=0;bottom=0;right=0;pointerEvents=1;fontSize=16;" vertex="1" parent="0qRXyUEl9UgICIR-H8Mq-19">
          <mxGeometry x="35" width="34" height="33" as="geometry">
            <mxRectangle width="34" height="33" as="alternateBounds" />
          </mxGeometry>
        </mxCell>
        <mxCell id="0qRXyUEl9UgICIR-H8Mq-22" value="" style="shape=partialRectangle;html=1;whiteSpace=wrap;connectable=0;strokeColor=inherit;overflow=hidden;fillColor=none;top=0;left=0;bottom=0;right=0;pointerEvents=1;fontSize=16;" vertex="1" parent="0qRXyUEl9UgICIR-H8Mq-19">
          <mxGeometry x="69" width="35" height="33" as="geometry">
            <mxRectangle width="35" height="33" as="alternateBounds" />
          </mxGeometry>
        </mxCell>
        <mxCell id="0qRXyUEl9UgICIR-H8Mq-23" value="" style="shape=tableRow;horizontal=0;startSize=0;swimlaneHead=0;swimlaneBody=0;strokeColor=inherit;top=0;left=0;bottom=0;right=0;collapsible=0;dropTarget=0;fillColor=none;points=[[0,0.5],[1,0.5]];portConstraint=eastwest;fontSize=16;" vertex="1" parent="0qRXyUEl9UgICIR-H8Mq-18">
          <mxGeometry y="33" width="104" height="34" as="geometry" />
        </mxCell>
        <mxCell id="0qRXyUEl9UgICIR-H8Mq-24" value="" style="shape=partialRectangle;html=1;whiteSpace=wrap;connectable=0;strokeColor=inherit;overflow=hidden;fillColor=none;top=0;left=0;bottom=0;right=0;pointerEvents=1;fontSize=16;" vertex="1" parent="0qRXyUEl9UgICIR-H8Mq-23">
          <mxGeometry width="35" height="34" as="geometry">
            <mxRectangle width="35" height="34" as="alternateBounds" />
          </mxGeometry>
        </mxCell>
        <mxCell id="0qRXyUEl9UgICIR-H8Mq-25" value="" style="shape=partialRectangle;html=1;whiteSpace=wrap;connectable=0;strokeColor=inherit;overflow=hidden;fillColor=none;top=0;left=0;bottom=0;right=0;pointerEvents=1;fontSize=16;" vertex="1" parent="0qRXyUEl9UgICIR-H8Mq-23">
          <mxGeometry x="35" width="34" height="34" as="geometry">
            <mxRectangle width="34" height="34" as="alternateBounds" />
          </mxGeometry>
        </mxCell>
        <mxCell id="0qRXyUEl9UgICIR-H8Mq-26" value="" style="shape=partialRectangle;html=1;whiteSpace=wrap;connectable=0;strokeColor=inherit;overflow=hidden;fillColor=none;top=0;left=0;bottom=0;right=0;pointerEvents=1;fontSize=16;" vertex="1" parent="0qRXyUEl9UgICIR-H8Mq-23">
          <mxGeometry x="69" width="35" height="34" as="geometry">
            <mxRectangle width="35" height="34" as="alternateBounds" />
          </mxGeometry>
        </mxCell>
        <mxCell id="0qRXyUEl9UgICIR-H8Mq-27" value="" style="shape=tableRow;horizontal=0;startSize=0;swimlaneHead=0;swimlaneBody=0;strokeColor=inherit;top=0;left=0;bottom=0;right=0;collapsible=0;dropTarget=0;fillColor=none;points=[[0,0.5],[1,0.5]];portConstraint=eastwest;fontSize=16;" vertex="1" parent="0qRXyUEl9UgICIR-H8Mq-18">
          <mxGeometry y="67" width="104" height="33" as="geometry" />
        </mxCell>
        <mxCell id="0qRXyUEl9UgICIR-H8Mq-28" value="" style="shape=partialRectangle;html=1;whiteSpace=wrap;connectable=0;strokeColor=inherit;overflow=hidden;fillColor=none;top=0;left=0;bottom=0;right=0;pointerEvents=1;fontSize=16;" vertex="1" parent="0qRXyUEl9UgICIR-H8Mq-27">
          <mxGeometry width="35" height="33" as="geometry">
            <mxRectangle width="35" height="33" as="alternateBounds" />
          </mxGeometry>
        </mxCell>
        <mxCell id="0qRXyUEl9UgICIR-H8Mq-29" value="" style="shape=partialRectangle;html=1;whiteSpace=wrap;connectable=0;strokeColor=inherit;overflow=hidden;fillColor=none;top=0;left=0;bottom=0;right=0;pointerEvents=1;fontSize=16;" vertex="1" parent="0qRXyUEl9UgICIR-H8Mq-27">
          <mxGeometry x="35" width="34" height="33" as="geometry">
            <mxRectangle width="34" height="33" as="alternateBounds" />
          </mxGeometry>
        </mxCell>
        <mxCell id="0qRXyUEl9UgICIR-H8Mq-30" value="" style="shape=partialRectangle;html=1;whiteSpace=wrap;connectable=0;strokeColor=inherit;overflow=hidden;fillColor=none;top=0;left=0;bottom=0;right=0;pointerEvents=1;fontSize=16;" vertex="1" parent="0qRXyUEl9UgICIR-H8Mq-27">
          <mxGeometry x="69" width="35" height="33" as="geometry">
            <mxRectangle width="35" height="33" as="alternateBounds" />
          </mxGeometry>
        </mxCell>
        <mxCell id="0qRXyUEl9UgICIR-H8Mq-31" value="" style="shape=table;startSize=0;container=1;collapsible=0;childLayout=tableLayout;fontSize=16;fillColor=#eeeeee;strokeColor=#36393d;" vertex="1" parent="1">
          <mxGeometry x="186" y="390" width="104" height="100" as="geometry" />
        </mxCell>
        <mxCell id="0qRXyUEl9UgICIR-H8Mq-32" value="" style="shape=tableRow;horizontal=0;startSize=0;swimlaneHead=0;swimlaneBody=0;strokeColor=inherit;top=0;left=0;bottom=0;right=0;collapsible=0;dropTarget=0;fillColor=none;points=[[0,0.5],[1,0.5]];portConstraint=eastwest;fontSize=16;" vertex="1" parent="0qRXyUEl9UgICIR-H8Mq-31">
          <mxGeometry width="104" height="33" as="geometry" />
        </mxCell>
        <mxCell id="0qRXyUEl9UgICIR-H8Mq-33" value="" style="shape=partialRectangle;html=1;whiteSpace=wrap;connectable=0;strokeColor=inherit;overflow=hidden;fillColor=none;top=0;left=0;bottom=0;right=0;pointerEvents=1;fontSize=16;" vertex="1" parent="0qRXyUEl9UgICIR-H8Mq-32">
          <mxGeometry width="35" height="33" as="geometry">
            <mxRectangle width="35" height="33" as="alternateBounds" />
          </mxGeometry>
        </mxCell>
        <mxCell id="0qRXyUEl9UgICIR-H8Mq-34" value="" style="shape=partialRectangle;html=1;whiteSpace=wrap;connectable=0;strokeColor=inherit;overflow=hidden;fillColor=none;top=0;left=0;bottom=0;right=0;pointerEvents=1;fontSize=16;" vertex="1" parent="0qRXyUEl9UgICIR-H8Mq-32">
          <mxGeometry x="35" width="34" height="33" as="geometry">
            <mxRectangle width="34" height="33" as="alternateBounds" />
          </mxGeometry>
        </mxCell>
        <mxCell id="0qRXyUEl9UgICIR-H8Mq-35" value="" style="shape=partialRectangle;html=1;whiteSpace=wrap;connectable=0;strokeColor=inherit;overflow=hidden;fillColor=none;top=0;left=0;bottom=0;right=0;pointerEvents=1;fontSize=16;" vertex="1" parent="0qRXyUEl9UgICIR-H8Mq-32">
          <mxGeometry x="69" width="35" height="33" as="geometry">
            <mxRectangle width="35" height="33" as="alternateBounds" />
          </mxGeometry>
        </mxCell>
        <mxCell id="0qRXyUEl9UgICIR-H8Mq-36" value="" style="shape=tableRow;horizontal=0;startSize=0;swimlaneHead=0;swimlaneBody=0;strokeColor=inherit;top=0;left=0;bottom=0;right=0;collapsible=0;dropTarget=0;fillColor=none;points=[[0,0.5],[1,0.5]];portConstraint=eastwest;fontSize=16;" vertex="1" parent="0qRXyUEl9UgICIR-H8Mq-31">
          <mxGeometry y="33" width="104" height="34" as="geometry" />
        </mxCell>
        <mxCell id="0qRXyUEl9UgICIR-H8Mq-37" value="" style="shape=partialRectangle;html=1;whiteSpace=wrap;connectable=0;strokeColor=inherit;overflow=hidden;fillColor=none;top=0;left=0;bottom=0;right=0;pointerEvents=1;fontSize=16;" vertex="1" parent="0qRXyUEl9UgICIR-H8Mq-36">
          <mxGeometry width="35" height="34" as="geometry">
            <mxRectangle width="35" height="34" as="alternateBounds" />
          </mxGeometry>
        </mxCell>
        <mxCell id="0qRXyUEl9UgICIR-H8Mq-38" value="" style="shape=partialRectangle;html=1;whiteSpace=wrap;connectable=0;strokeColor=inherit;overflow=hidden;fillColor=none;top=0;left=0;bottom=0;right=0;pointerEvents=1;fontSize=16;" vertex="1" parent="0qRXyUEl9UgICIR-H8Mq-36">
          <mxGeometry x="35" width="34" height="34" as="geometry">
            <mxRectangle width="34" height="34" as="alternateBounds" />
          </mxGeometry>
        </mxCell>
        <mxCell id="0qRXyUEl9UgICIR-H8Mq-39" value="&lt;font style=&quot;font-size: 12px;&quot;&gt;10&lt;/font&gt;" style="shape=partialRectangle;html=1;whiteSpace=wrap;connectable=0;strokeColor=inherit;overflow=hidden;fillColor=none;top=0;left=0;bottom=0;right=0;pointerEvents=1;fontSize=16;" vertex="1" parent="0qRXyUEl9UgICIR-H8Mq-36">
          <mxGeometry x="69" width="35" height="34" as="geometry">
            <mxRectangle width="35" height="34" as="alternateBounds" />
          </mxGeometry>
        </mxCell>
        <mxCell id="0qRXyUEl9UgICIR-H8Mq-40" value="" style="shape=tableRow;horizontal=0;startSize=0;swimlaneHead=0;swimlaneBody=0;strokeColor=inherit;top=0;left=0;bottom=0;right=0;collapsible=0;dropTarget=0;fillColor=none;points=[[0,0.5],[1,0.5]];portConstraint=eastwest;fontSize=16;" vertex="1" parent="0qRXyUEl9UgICIR-H8Mq-31">
          <mxGeometry y="67" width="104" height="33" as="geometry" />
        </mxCell>
        <mxCell id="0qRXyUEl9UgICIR-H8Mq-41" value="" style="shape=partialRectangle;html=1;whiteSpace=wrap;connectable=0;strokeColor=inherit;overflow=hidden;fillColor=none;top=0;left=0;bottom=0;right=0;pointerEvents=1;fontSize=16;" vertex="1" parent="0qRXyUEl9UgICIR-H8Mq-40">
          <mxGeometry width="35" height="33" as="geometry">
            <mxRectangle width="35" height="33" as="alternateBounds" />
          </mxGeometry>
        </mxCell>
        <mxCell id="0qRXyUEl9UgICIR-H8Mq-42" value="" style="shape=partialRectangle;html=1;whiteSpace=wrap;connectable=0;strokeColor=inherit;overflow=hidden;fillColor=none;top=0;left=0;bottom=0;right=0;pointerEvents=1;fontSize=16;" vertex="1" parent="0qRXyUEl9UgICIR-H8Mq-40">
          <mxGeometry x="35" width="34" height="33" as="geometry">
            <mxRectangle width="34" height="33" as="alternateBounds" />
          </mxGeometry>
        </mxCell>
        <mxCell id="0qRXyUEl9UgICIR-H8Mq-43" value="" style="shape=partialRectangle;html=1;whiteSpace=wrap;connectable=0;strokeColor=inherit;overflow=hidden;fillColor=none;top=0;left=0;bottom=0;right=0;pointerEvents=1;fontSize=16;" vertex="1" parent="0qRXyUEl9UgICIR-H8Mq-40">
          <mxGeometry x="69" width="35" height="33" as="geometry">
            <mxRectangle width="35" height="33" as="alternateBounds" />
          </mxGeometry>
        </mxCell>
        <mxCell id="0qRXyUEl9UgICIR-H8Mq-44" value="" style="shape=table;startSize=0;container=1;collapsible=0;childLayout=tableLayout;fontSize=16;fillColor=#eeeeee;strokeColor=#36393d;" vertex="1" parent="1">
          <mxGeometry x="290" y="390" width="104" height="100" as="geometry" />
        </mxCell>
        <mxCell id="0qRXyUEl9UgICIR-H8Mq-45" value="" style="shape=tableRow;horizontal=0;startSize=0;swimlaneHead=0;swimlaneBody=0;strokeColor=inherit;top=0;left=0;bottom=0;right=0;collapsible=0;dropTarget=0;fillColor=none;points=[[0,0.5],[1,0.5]];portConstraint=eastwest;fontSize=16;" vertex="1" parent="0qRXyUEl9UgICIR-H8Mq-44">
          <mxGeometry width="104" height="33" as="geometry" />
        </mxCell>
        <mxCell id="0qRXyUEl9UgICIR-H8Mq-46" value="&lt;font style=&quot;font-size: 12px;&quot;&gt;10&lt;/font&gt;" style="shape=partialRectangle;html=1;whiteSpace=wrap;connectable=0;strokeColor=inherit;overflow=hidden;fillColor=none;top=0;left=0;bottom=0;right=0;pointerEvents=1;fontSize=16;" vertex="1" parent="0qRXyUEl9UgICIR-H8Mq-45">
          <mxGeometry width="35" height="33" as="geometry">
            <mxRectangle width="35" height="33" as="alternateBounds" />
          </mxGeometry>
        </mxCell>
        <mxCell id="0qRXyUEl9UgICIR-H8Mq-47" value="" style="shape=partialRectangle;html=1;whiteSpace=wrap;connectable=0;strokeColor=inherit;overflow=hidden;fillColor=none;top=0;left=0;bottom=0;right=0;pointerEvents=1;fontSize=16;" vertex="1" parent="0qRXyUEl9UgICIR-H8Mq-45">
          <mxGeometry x="35" width="34" height="33" as="geometry">
            <mxRectangle width="34" height="33" as="alternateBounds" />
          </mxGeometry>
        </mxCell>
        <mxCell id="0qRXyUEl9UgICIR-H8Mq-48" value="" style="shape=partialRectangle;html=1;whiteSpace=wrap;connectable=0;strokeColor=inherit;overflow=hidden;fillColor=none;top=0;left=0;bottom=0;right=0;pointerEvents=1;fontSize=16;" vertex="1" parent="0qRXyUEl9UgICIR-H8Mq-45">
          <mxGeometry x="69" width="35" height="33" as="geometry">
            <mxRectangle width="35" height="33" as="alternateBounds" />
          </mxGeometry>
        </mxCell>
        <mxCell id="0qRXyUEl9UgICIR-H8Mq-49" value="" style="shape=tableRow;horizontal=0;startSize=0;swimlaneHead=0;swimlaneBody=0;strokeColor=inherit;top=0;left=0;bottom=0;right=0;collapsible=0;dropTarget=0;fillColor=none;points=[[0,0.5],[1,0.5]];portConstraint=eastwest;fontSize=16;" vertex="1" parent="0qRXyUEl9UgICIR-H8Mq-44">
          <mxGeometry y="33" width="104" height="34" as="geometry" />
        </mxCell>
        <mxCell id="0qRXyUEl9UgICIR-H8Mq-50" value="" style="shape=partialRectangle;html=1;whiteSpace=wrap;connectable=0;strokeColor=inherit;overflow=hidden;fillColor=none;top=0;left=0;bottom=0;right=0;pointerEvents=1;fontSize=16;" vertex="1" parent="0qRXyUEl9UgICIR-H8Mq-49">
          <mxGeometry width="35" height="34" as="geometry">
            <mxRectangle width="35" height="34" as="alternateBounds" />
          </mxGeometry>
        </mxCell>
        <mxCell id="0qRXyUEl9UgICIR-H8Mq-51" value="&lt;font style=&quot;font-size: 12px;&quot;&gt;0.15&lt;/font&gt;" style="shape=partialRectangle;html=1;whiteSpace=wrap;connectable=0;strokeColor=inherit;overflow=hidden;fillColor=none;top=0;left=0;bottom=0;right=0;pointerEvents=1;fontSize=16;" vertex="1" parent="0qRXyUEl9UgICIR-H8Mq-49">
          <mxGeometry x="35" width="34" height="34" as="geometry">
            <mxRectangle width="34" height="34" as="alternateBounds" />
          </mxGeometry>
        </mxCell>
        <mxCell id="0qRXyUEl9UgICIR-H8Mq-52" value="" style="shape=partialRectangle;html=1;whiteSpace=wrap;connectable=0;strokeColor=inherit;overflow=hidden;fillColor=none;top=0;left=0;bottom=0;right=0;pointerEvents=1;fontSize=16;" vertex="1" parent="0qRXyUEl9UgICIR-H8Mq-49">
          <mxGeometry x="69" width="35" height="34" as="geometry">
            <mxRectangle width="35" height="34" as="alternateBounds" />
          </mxGeometry>
        </mxCell>
        <mxCell id="0qRXyUEl9UgICIR-H8Mq-53" value="" style="shape=tableRow;horizontal=0;startSize=0;swimlaneHead=0;swimlaneBody=0;strokeColor=inherit;top=0;left=0;bottom=0;right=0;collapsible=0;dropTarget=0;fillColor=none;points=[[0,0.5],[1,0.5]];portConstraint=eastwest;fontSize=16;" vertex="1" parent="0qRXyUEl9UgICIR-H8Mq-44">
          <mxGeometry y="67" width="104" height="33" as="geometry" />
        </mxCell>
        <mxCell id="0qRXyUEl9UgICIR-H8Mq-54" value="" style="shape=partialRectangle;html=1;whiteSpace=wrap;connectable=0;strokeColor=inherit;overflow=hidden;fillColor=none;top=0;left=0;bottom=0;right=0;pointerEvents=1;fontSize=16;" vertex="1" parent="0qRXyUEl9UgICIR-H8Mq-53">
          <mxGeometry width="35" height="33" as="geometry">
            <mxRectangle width="35" height="33" as="alternateBounds" />
          </mxGeometry>
        </mxCell>
        <mxCell id="0qRXyUEl9UgICIR-H8Mq-55" value="&lt;font style=&quot;font-size: 12px;&quot;&gt;10&lt;/font&gt;" style="shape=partialRectangle;html=1;whiteSpace=wrap;connectable=0;strokeColor=inherit;overflow=hidden;fillColor=none;top=0;left=0;bottom=0;right=0;pointerEvents=1;fontSize=16;" vertex="1" parent="0qRXyUEl9UgICIR-H8Mq-53">
          <mxGeometry x="35" width="34" height="33" as="geometry">
            <mxRectangle width="34" height="33" as="alternateBounds" />
          </mxGeometry>
        </mxCell>
        <mxCell id="0qRXyUEl9UgICIR-H8Mq-56" value="" style="shape=partialRectangle;html=1;whiteSpace=wrap;connectable=0;strokeColor=inherit;overflow=hidden;fillColor=none;top=0;left=0;bottom=0;right=0;pointerEvents=1;fontSize=16;" vertex="1" parent="0qRXyUEl9UgICIR-H8Mq-53">
          <mxGeometry x="69" width="35" height="33" as="geometry">
            <mxRectangle width="35" height="33" as="alternateBounds" />
          </mxGeometry>
        </mxCell>
        <mxCell id="0qRXyUEl9UgICIR-H8Mq-57" value="M" style="text;html=1;align=center;verticalAlign=middle;resizable=0;points=[];autosize=1;strokeColor=none;fillColor=none;fontStyle=1;fontSize=21;" vertex="1" parent="1">
          <mxGeometry x="270" y="250" width="40" height="40" as="geometry" />
        </mxCell>
        <mxCell id="0qRXyUEl9UgICIR-H8Mq-58" value="N" style="text;html=1;align=center;verticalAlign=middle;resizable=0;points=[];autosize=1;strokeColor=none;fillColor=none;fontStyle=1;fontSize=21;" vertex="1" parent="1">
          <mxGeometry x="140" y="360" width="40" height="40" as="geometry" />
        </mxCell>
        <mxCell id="0qRXyUEl9UgICIR-H8Mq-59" value="&lt;b&gt;0.99&lt;/b&gt;" style="rounded=0;whiteSpace=wrap;html=1;fillColor=#1ba1e2;strokeColor=#006EAF;fontColor=#ffffff;" vertex="1" parent="1">
          <mxGeometry x="360" y="359" width="33" height="30" as="geometry" />
        </mxCell>
        <mxCell id="0qRXyUEl9UgICIR-H8Mq-60" value="" style="shape=flexArrow;endArrow=classic;html=1;rounded=0;" edge="1" parent="1">
          <mxGeometry width="50" height="50" relative="1" as="geometry">
            <mxPoint x="410" y="358" as="sourcePoint" />
            <mxPoint x="460" y="308" as="targetPoint" />
          </mxGeometry>
        </mxCell>
        <mxCell id="0qRXyUEl9UgICIR-H8Mq-61" style="edgeStyle=orthogonalEdgeStyle;rounded=0;orthogonalLoop=1;jettySize=auto;html=1;" edge="1" parent="1" source="0qRXyUEl9UgICIR-H8Mq-62" target="0qRXyUEl9UgICIR-H8Mq-4">
          <mxGeometry relative="1" as="geometry" />
        </mxCell>
        <mxCell id="0qRXyUEl9UgICIR-H8Mq-62" value="&lt;b&gt;&lt;font style=&quot;font-size: 14px;&quot;&gt;ExtractFeatures&lt;/font&gt;&lt;/b&gt;" style="rounded=0;whiteSpace=wrap;html=1;" vertex="1" parent="1">
          <mxGeometry x="487" y="293" width="140" height="50" as="geometry" />
        </mxCell>
        <mxCell id="0qRXyUEl9UgICIR-H8Mq-63" value="&lt;b&gt;&lt;font style=&quot;font-size: 14px;&quot;&gt;MatchingSimilarity&lt;/font&gt;&lt;/b&gt;" style="rounded=0;whiteSpace=wrap;html=1;" vertex="1" parent="1">
          <mxGeometry x="487" y="433" width="140" height="50" as="geometry" />
        </mxCell>
        <mxCell id="0qRXyUEl9UgICIR-H8Mq-64" value="" style="shape=flexArrow;endArrow=classic;html=1;rounded=0;" edge="1" parent="1">
          <mxGeometry width="50" height="50" relative="1" as="geometry">
            <mxPoint x="460" y="458" as="sourcePoint" />
            <mxPoint x="410" y="398" as="targetPoint" />
          </mxGeometry>
        </mxCell>
        <mxCell id="0qRXyUEl9UgICIR-H8Mq-65" style="edgeStyle=orthogonalEdgeStyle;rounded=0;orthogonalLoop=1;jettySize=auto;html=1;entryX=0;entryY=0.5;entryDx=0;entryDy=0;" edge="1" parent="1" source="0qRXyUEl9UgICIR-H8Mq-66" target="0qRXyUEl9UgICIR-H8Mq-10">
          <mxGeometry relative="1" as="geometry" />
        </mxCell>
        <mxCell id="0qRXyUEl9UgICIR-H8Mq-66" value="Out-Gating Distance" style="text;html=1;align=center;verticalAlign=middle;whiteSpace=wrap;rounded=0;fontStyle=4" vertex="1" parent="1">
          <mxGeometry x="30" y="325" width="123.5" height="30" as="geometry" />
        </mxCell>
        <mxCell id="0qRXyUEl9UgICIR-H8Mq-67" value="Matched Distance" style="text;html=1;align=center;verticalAlign=middle;whiteSpace=wrap;rounded=0;fontStyle=4" vertex="1" parent="1">
          <mxGeometry x="357" y="259" width="123.5" height="30" as="geometry" />
        </mxCell>
        <mxCell id="0qRXyUEl9UgICIR-H8Mq-68" value="" style="endArrow=classic;html=1;rounded=0;entryX=0.5;entryY=0;entryDx=0;entryDy=0;" edge="1" parent="1" target="0qRXyUEl9UgICIR-H8Mq-59">
          <mxGeometry width="50" height="50" relative="1" as="geometry">
            <mxPoint x="410" y="290" as="sourcePoint" />
            <mxPoint x="460" y="240" as="targetPoint" />
          </mxGeometry>
        </mxCell>
        <mxCell id="0qRXyUEl9UgICIR-H8Mq-69" value="Not-Matched Distance" style="text;html=1;align=center;verticalAlign=middle;whiteSpace=wrap;rounded=0;fontStyle=4" vertex="1" parent="1">
          <mxGeometry x="250" y="493" width="123.5" height="30" as="geometry" />
        </mxCell>
        <mxCell id="0qRXyUEl9UgICIR-H8Mq-70" value="" style="endArrow=classic;html=1;rounded=0;" edge="1" parent="1" target="0qRXyUEl9UgICIR-H8Mq-49">
          <mxGeometry width="50" height="50" relative="1" as="geometry">
            <mxPoint x="310" y="500" as="sourcePoint" />
            <mxPoint x="360" y="450" as="targetPoint" />
          </mxGeometry>
        </mxCell>
        <mxCell id="0qRXyUEl9UgICIR-H8Mq-71" value="&lt;font color=&quot;#330000&quot;&gt;&lt;b&gt;0.15&lt;/b&gt;&lt;/font&gt;" style="rounded=0;whiteSpace=wrap;html=1;fillColor=#ffff88;strokeColor=#36393d;" vertex="1" parent="1">
          <mxGeometry x="325.5" y="425" width="33" height="30" as="geometry" />
        </mxCell>
        <mxCell id="0qRXyUEl9UgICIR-H8Mq-79" style="edgeStyle=orthogonalEdgeStyle;rounded=0;orthogonalLoop=1;jettySize=auto;html=1;entryX=0.5;entryY=0;entryDx=0;entryDy=0;" edge="1" parent="1" source="0qRXyUEl9UgICIR-H8Mq-73" target="0qRXyUEl9UgICIR-H8Mq-75">
          <mxGeometry relative="1" as="geometry" />
        </mxCell>
        <mxCell id="0qRXyUEl9UgICIR-H8Mq-73" value="&lt;b&gt;&lt;font style=&quot;font-size: 14px;&quot;&gt;GraphMatching&lt;/font&gt;&lt;/b&gt;" style="rounded=0;whiteSpace=wrap;html=1;" vertex="1" parent="1">
          <mxGeometry x="220" y="570" width="140" height="50" as="geometry" />
        </mxCell>
        <mxCell id="0qRXyUEl9UgICIR-H8Mq-74" value="" style="shape=flexArrow;endArrow=classic;html=1;rounded=0;" edge="1" parent="1">
          <mxGeometry width="50" height="50" relative="1" as="geometry">
            <mxPoint x="290" y="521" as="sourcePoint" />
            <mxPoint x="290" y="566" as="targetPoint" />
          </mxGeometry>
        </mxCell>
        <mxCell id="0qRXyUEl9UgICIR-H8Mq-75" value="&lt;span style=&quot;font-size: 14px;&quot;&gt;&lt;b&gt;MatchingResults&lt;/b&gt;&lt;/span&gt;" style="rounded=0;whiteSpace=wrap;html=1;" vertex="1" parent="1">
          <mxGeometry x="220" y="640" width="140" height="50" as="geometry" />
        </mxCell>
      </root>
    </mxGraphModel>
  </diagram>
</mxfile>
